<?xml version="1.0" encoding="UTF-8" standalone="no"?>
<!DOCTYPE svg PUBLIC "-//W3C//DTD SVG 1.1//EN"
 "http://www.w3.org/Graphics/SVG/1.1/DTD/svg11.dtd">
<!-- Generated by graphviz version 2.40.1 (20161225.0304)
 -->
<!-- Title: dependencies Pages: 1 -->
<svg width="604pt" height="284pt"
 viewBox="0.00 0.00 604.00 284.00" xmlns="http://www.w3.org/2000/svg" xmlns:xlink="http://www.w3.org/1999/xlink">
<g id="graph0" class="graph" transform="scale(1 1) rotate(0) translate(4 280)">
<title>dependencies</title>
<polygon fill="#ffffff" stroke="transparent" points="-4,4 -4,-280 600,-280 600,4 -4,4"/>
<text text-anchor="start" x="277.0091" y="-42.4" font-family="sans-serif" font-weight="bold" font-size="14.00" fill="#000000">Legend</text>
<polygon fill="#ffffb3" stroke="transparent" points="64,-10 64,-30 84,-30 84,-10 64,-10"/>
<text text-anchor="start" x="87.629" y="-15.4" font-family="sans-serif" font-size="14.00" fill="#000000"> &#160;Declarations</text>
<polygon fill="#8dd3c7" stroke="transparent" points="177,-10 177,-30 197,-30 197,-10 177,-10"/>
<text text-anchor="start" x="200.7251" y="-15.4" font-family="sans-serif" font-size="14.00" fill="#000000"> &#160;Module</text>
<polygon fill="#80b1d3" stroke="transparent" points="263,-10 263,-30 283,-30 283,-10 263,-10"/>
<text text-anchor="start" x="286.7812" y="-15.4" font-family="sans-serif" font-size="14.00" fill="#000000"> &#160;Bootstrap</text>
<polygon fill="#fdb462" stroke="transparent" points="360,-10 360,-30 380,-30 380,-10 360,-10"/>
<text text-anchor="start" x="383.6732" y="-15.4" font-family="sans-serif" font-size="14.00" fill="#000000"> &#160;Providers</text>
<polygon fill="#fb8072" stroke="transparent" points="456,-10 456,-30 476,-30 476,-10 456,-10"/>
<text text-anchor="start" x="479.7258" y="-15.4" font-family="sans-serif" font-size="14.00" fill="#000000"> &#160;Exports</text>
<g id="clust1" class="cluster">
<title>cluster_ComponentsModule</title>
<polygon fill="none" stroke="#000000" stroke-dasharray="1,5" points="8,-70 8,-268 588,-268 588,-70 8,-70"/>
</g>
<g id="clust2" class="cluster">
<title>cluster_ComponentsModule_declarations</title>
<polygon fill="none" stroke="#000000" points="16,-78 16,-130 580,-130 580,-78 16,-78"/>
</g>
<g id="clust8" class="cluster">
<title>cluster_ComponentsModule_exports</title>
<polygon fill="none" stroke="#000000" points="121,-208 121,-260 438,-260 438,-208 121,-208"/>
</g>
<!-- AvatarSelectorComponent -->
<g id="node1" class="node">
<title>AvatarSelectorComponent</title>
<polygon fill="#ffffb3" stroke="#000000" points="571.7879,-122 406.2121,-122 406.2121,-86 571.7879,-86 571.7879,-122"/>
<text text-anchor="middle" x="489" y="-99.8" font-family="Times,serif" font-size="14.00" fill="#000000">AvatarSelectorComponent</text>
</g>
<!-- ComponentsModule -->
<g id="node5" class="node">
<title>ComponentsModule</title>
<polygon fill="#8dd3c7" stroke="#000000" points="331.3272,-187 328.3272,-191 307.3272,-191 304.3272,-187 200.6728,-187 200.6728,-151 331.3272,-151 331.3272,-187"/>
<text text-anchor="middle" x="266" y="-164.8" font-family="Times,serif" font-size="14.00" fill="#000000">ComponentsModule</text>
</g>
<!-- AvatarSelectorComponent&#45;&gt;ComponentsModule -->
<g id="edge1" class="edge">
<title>AvatarSelectorComponent&#45;&gt;ComponentsModule</title>
<path fill="none" stroke="#000000" d="M418.375,-122.1061C418.375,-141.3391 418.375,-169 418.375,-169 418.375,-169 341.505,-169 341.505,-169"/>
<polygon fill="#000000" stroke="#000000" points="341.5051,-165.5001 331.505,-169 341.505,-172.5001 341.5051,-165.5001"/>
</g>
<!-- MapaComponent -->
<g id="node2" class="node">
<title>MapaComponent</title>
<polygon fill="#ffffb3" stroke="#000000" points="388.7064,-122 275.2936,-122 275.2936,-86 388.7064,-86 388.7064,-122"/>
<text text-anchor="middle" x="332" y="-99.8" font-family="Times,serif" font-size="14.00" fill="#000000">MapaComponent</text>
</g>
<!-- MapaComponent&#45;&gt;ComponentsModule -->
<g id="edge2" class="edge">
<title>MapaComponent&#45;&gt;ComponentsModule</title>
<path fill="none" stroke="#000000" d="M303.2802,-122.1061C303.2802,-122.1061 303.2802,-140.991 303.2802,-140.991"/>
<polygon fill="#000000" stroke="#000000" points="299.7802,-140.9909 303.2802,-150.991 306.7802,-140.991 299.7802,-140.9909"/>
</g>
<!-- PostComponent -->
<g id="node3" class="node">
<title>PostComponent</title>
<polygon fill="#ffffb3" stroke="#000000" points="257.9512,-122 152.0488,-122 152.0488,-86 257.9512,-86 257.9512,-122"/>
<text text-anchor="middle" x="205" y="-99.8" font-family="Times,serif" font-size="14.00" fill="#000000">PostComponent</text>
</g>
<!-- PostComponent&#45;&gt;ComponentsModule -->
<g id="edge3" class="edge">
<title>PostComponent&#45;&gt;ComponentsModule</title>
<path fill="none" stroke="#000000" d="M229.2809,-122.1061C229.2809,-122.1061 229.2809,-140.991 229.2809,-140.991"/>
<polygon fill="#000000" stroke="#000000" points="225.7809,-140.9909 229.2809,-150.991 232.7809,-140.991 225.7809,-140.9909"/>
</g>
<!-- PostsComponent -->
<g id="node4" class="node">
<title>PostsComponent</title>
<polygon fill="#ffffb3" stroke="#000000" points="134.3948,-122 23.6052,-122 23.6052,-86 134.3948,-86 134.3948,-122"/>
<text text-anchor="middle" x="79" y="-99.8" font-family="Times,serif" font-size="14.00" fill="#000000">PostsComponent</text>
</g>
<!-- PostsComponent&#45;&gt;ComponentsModule -->
<g id="edge4" class="edge">
<title>PostsComponent&#45;&gt;ComponentsModule</title>
<path fill="none" stroke="#000000" d="M76.1776,-122.1061C76.1776,-141.3391 76.1776,-169 76.1776,-169 76.1776,-169 190.6739,-169 190.6739,-169"/>
<polygon fill="#000000" stroke="#000000" points="190.6739,-172.5001 200.6739,-169 190.6739,-165.5001 190.6739,-172.5001"/>
</g>
<!-- AvatarSelectorComponent  -->
<g id="node6" class="node">
<title>AvatarSelectorComponent </title>
<polygon fill="#fb8072" stroke="#000000" points="430.2877,-252 261.7123,-252 261.7123,-216 430.2877,-216 430.2877,-252"/>
<text text-anchor="middle" x="346" y="-229.8" font-family="Times,serif" font-size="14.00" fill="#000000">AvatarSelectorComponent </text>
</g>
<!-- ComponentsModule&#45;&gt;AvatarSelectorComponent  -->
<g id="edge5" class="edge">
<title>ComponentsModule&#45;&gt;AvatarSelectorComponent </title>
<path fill="none" stroke="#000000" stroke-dasharray="5,2" d="M296.3848,-187.1061C296.3848,-187.1061 296.3848,-205.991 296.3848,-205.991"/>
<polygon fill="#000000" stroke="#000000" points="292.8849,-205.9909 296.3848,-215.991 299.8849,-205.991 292.8849,-205.9909"/>
</g>
<!-- PostsComponent  -->
<g id="node7" class="node">
<title>PostsComponent </title>
<polygon fill="#fb8072" stroke="#000000" points="243.3955,-252 128.6045,-252 128.6045,-216 243.3955,-216 243.3955,-252"/>
<text text-anchor="middle" x="186" y="-229.8" font-family="Times,serif" font-size="14.00" fill="#000000">PostsComponent </text>
</g>
<!-- ComponentsModule&#45;&gt;PostsComponent  -->
<g id="edge6" class="edge">
<title>ComponentsModule&#45;&gt;PostsComponent </title>
<path fill="none" stroke="#000000" stroke-dasharray="5,2" d="M222.017,-187.1061C222.017,-187.1061 222.017,-205.991 222.017,-205.991"/>
<polygon fill="#000000" stroke="#000000" points="218.5171,-205.9909 222.017,-215.991 225.5171,-205.991 218.5171,-205.9909"/>
</g>
</g>
</svg>
