<?xml version="1.0" encoding="UTF-8" standalone="no"?>
<!DOCTYPE svg PUBLIC "-//W3C//DTD SVG 1.1//EN"
 "http://www.w3.org/Graphics/SVG/1.1/DTD/svg11.dtd">
<!-- Generated by graphviz version 2.40.1 (20161225.0304)
 -->
<!-- Title: dependencies Pages: 1 -->
<svg width="2845pt" height="284pt"
 viewBox="0.00 0.00 2845.00 284.00" xmlns="http://www.w3.org/2000/svg" xmlns:xlink="http://www.w3.org/1999/xlink">
<g id="graph0" class="graph" transform="scale(1 1) rotate(0) translate(4 280)">
<title>dependencies</title>
<polygon fill="#ffffff" stroke="transparent" points="-4,4 -4,-280 2841,-280 2841,4 -4,4"/>
<text text-anchor="start" x="1397.5091" y="-42.4" font-family="sans-serif" font-weight="bold" font-size="14.00" fill="#000000">Legend</text>
<polygon fill="#ffffb3" stroke="transparent" points="1184.5,-10 1184.5,-30 1204.5,-30 1204.5,-10 1184.5,-10"/>
<text text-anchor="start" x="1208.129" y="-15.4" font-family="sans-serif" font-size="14.00" fill="#000000"> &#160;Declarations</text>
<polygon fill="#8dd3c7" stroke="transparent" points="1297.5,-10 1297.5,-30 1317.5,-30 1317.5,-10 1297.5,-10"/>
<text text-anchor="start" x="1321.2251" y="-15.4" font-family="sans-serif" font-size="14.00" fill="#000000"> &#160;Module</text>
<polygon fill="#80b1d3" stroke="transparent" points="1383.5,-10 1383.5,-30 1403.5,-30 1403.5,-10 1383.5,-10"/>
<text text-anchor="start" x="1407.2812" y="-15.4" font-family="sans-serif" font-size="14.00" fill="#000000"> &#160;Bootstrap</text>
<polygon fill="#fdb462" stroke="transparent" points="1480.5,-10 1480.5,-30 1500.5,-30 1500.5,-10 1480.5,-10"/>
<text text-anchor="start" x="1504.1732" y="-15.4" font-family="sans-serif" font-size="14.00" fill="#000000"> &#160;Providers</text>
<polygon fill="#fb8072" stroke="transparent" points="1576.5,-10 1576.5,-30 1596.5,-30 1596.5,-10 1576.5,-10"/>
<text text-anchor="start" x="1600.2258" y="-15.4" font-family="sans-serif" font-size="14.00" fill="#000000"> &#160;Exports</text>
<g id="clust1" class="cluster">
<title>cluster_AppModule</title>
<polygon fill="none" stroke="#000000" stroke-dasharray="1,5" points="8,-70 8,-268 298,-268 298,-70 8,-70"/>
</g>
<g id="clust2" class="cluster">
<title>cluster_AppModule_declarations</title>
<polygon fill="none" stroke="#000000" points="168,-78 168,-130 290,-130 290,-78 168,-78"/>
</g>
<g id="clust4" class="cluster">
<title>cluster_AppModule_imports</title>
<polygon fill="none" stroke="#000000" points="16,-78 16,-130 160,-130 160,-78 16,-78"/>
</g>
<g id="clust6" class="cluster">
<title>cluster_AppModule_bootstrap</title>
<polygon fill="none" stroke="#000000" points="96,-208 96,-260 220,-260 220,-208 96,-208"/>
</g>
<g id="clust14" class="cluster">
<title>cluster_ComponentsModule</title>
<polygon fill="none" stroke="#000000" stroke-dasharray="1,5" points="306,-70 306,-268 886,-268 886,-70 306,-70"/>
</g>
<g id="clust15" class="cluster">
<title>cluster_ComponentsModule_declarations</title>
<polygon fill="none" stroke="#000000" points="314,-78 314,-130 878,-130 878,-78 314,-78"/>
</g>
<g id="clust21" class="cluster">
<title>cluster_ComponentsModule_exports</title>
<polygon fill="none" stroke="#000000" points="419,-208 419,-260 736,-260 736,-208 419,-208"/>
</g>
<g id="clust24" class="cluster">
<title>cluster_LoginPageModule</title>
<polygon fill="none" stroke="#000000" stroke-dasharray="1,5" points="894,-70 894,-195 1030,-195 1030,-70 894,-70"/>
</g>
<g id="clust25" class="cluster">
<title>cluster_LoginPageModule_declarations</title>
<polygon fill="none" stroke="#000000" points="916,-78 916,-130 1008,-130 1008,-78 916,-78"/>
</g>
<g id="clust31" class="cluster">
<title>cluster_MasinfoPageModule</title>
<polygon fill="none" stroke="#000000" stroke-dasharray="1,5" points="1038,-70 1038,-195 1188,-195 1188,-70 1038,-70"/>
</g>
<g id="clust32" class="cluster">
<title>cluster_MasinfoPageModule_declarations</title>
<polygon fill="none" stroke="#000000" points="1060,-78 1060,-130 1166,-130 1166,-78 1060,-78"/>
</g>
<g id="clust38" class="cluster">
<title>cluster_PipesModule</title>
<polygon fill="none" stroke="#000000" stroke-dasharray="1,5" points="1196,-70 1196,-268 1695,-268 1695,-70 1196,-70"/>
</g>
<g id="clust39" class="cluster">
<title>cluster_PipesModule_declarations</title>
<polygon fill="none" stroke="#000000" points="1213,-78 1213,-130 1681,-130 1681,-78 1213,-78"/>
</g>
<g id="clust45" class="cluster">
<title>cluster_PipesModule_exports</title>
<polygon fill="none" stroke="#000000" points="1204,-208 1204,-260 1687,-260 1687,-208 1204,-208"/>
</g>
<g id="clust54" class="cluster">
<title>cluster_Tab1PageModule</title>
<polygon fill="none" stroke="#000000" stroke-dasharray="1,5" points="1703,-70 1703,-195 1835,-195 1835,-70 1703,-70"/>
</g>
<g id="clust55" class="cluster">
<title>cluster_Tab1PageModule_declarations</title>
<polygon fill="none" stroke="#000000" points="1725,-78 1725,-130 1813,-130 1813,-78 1725,-78"/>
</g>
<g id="clust61" class="cluster">
<title>cluster_Tab2PageModule</title>
<polygon fill="none" stroke="#000000" stroke-dasharray="1,5" points="1843,-70 1843,-195 1975,-195 1975,-70 1843,-70"/>
</g>
<g id="clust62" class="cluster">
<title>cluster_Tab2PageModule_declarations</title>
<polygon fill="none" stroke="#000000" points="1865,-78 1865,-130 1953,-130 1953,-78 1865,-78"/>
</g>
<g id="clust68" class="cluster">
<title>cluster_Tab3PageModule</title>
<polygon fill="none" stroke="#000000" stroke-dasharray="1,5" points="1983,-70 1983,-195 2115,-195 2115,-70 1983,-70"/>
</g>
<g id="clust69" class="cluster">
<title>cluster_Tab3PageModule_declarations</title>
<polygon fill="none" stroke="#000000" points="2005,-78 2005,-130 2093,-130 2093,-78 2005,-78"/>
</g>
<g id="clust75" class="cluster">
<title>cluster_Tab4PageModule</title>
<polygon fill="none" stroke="#000000" stroke-dasharray="1,5" points="2123,-70 2123,-195 2255,-195 2255,-70 2123,-70"/>
</g>
<g id="clust76" class="cluster">
<title>cluster_Tab4PageModule_declarations</title>
<polygon fill="none" stroke="#000000" points="2145,-78 2145,-130 2233,-130 2233,-78 2145,-78"/>
</g>
<g id="clust82" class="cluster">
<title>cluster_Tab5PageModule</title>
<polygon fill="none" stroke="#000000" stroke-dasharray="1,5" points="2263,-70 2263,-195 2395,-195 2395,-70 2263,-70"/>
</g>
<g id="clust83" class="cluster">
<title>cluster_Tab5PageModule_declarations</title>
<polygon fill="none" stroke="#000000" points="2285,-78 2285,-130 2373,-130 2373,-78 2285,-78"/>
</g>
<g id="clust89" class="cluster">
<title>cluster_Tab6PageModule</title>
<polygon fill="none" stroke="#000000" stroke-dasharray="1,5" points="2403,-70 2403,-195 2535,-195 2535,-70 2403,-70"/>
</g>
<g id="clust90" class="cluster">
<title>cluster_Tab6PageModule_declarations</title>
<polygon fill="none" stroke="#000000" points="2425,-78 2425,-130 2513,-130 2513,-78 2425,-78"/>
</g>
<g id="clust96" class="cluster">
<title>cluster_TabsPageModule</title>
<polygon fill="none" stroke="#000000" stroke-dasharray="1,5" points="2543,-70 2543,-195 2829,-195 2829,-70 2543,-70"/>
</g>
<g id="clust97" class="cluster">
<title>cluster_TabsPageModule_declarations</title>
<polygon fill="none" stroke="#000000" points="2735,-78 2735,-130 2821,-130 2821,-78 2735,-78"/>
</g>
<g id="clust99" class="cluster">
<title>cluster_TabsPageModule_imports</title>
<polygon fill="none" stroke="#000000" points="2551,-78 2551,-130 2727,-130 2727,-78 2551,-78"/>
</g>
<!-- AppComponent -->
<g id="node1" class="node">
<title>AppComponent</title>
<polygon fill="#ffffb3" stroke="#000000" points="281.9399,-122 176.0601,-122 176.0601,-86 281.9399,-86 281.9399,-122"/>
<text text-anchor="middle" x="229" y="-99.8" font-family="Times,serif" font-size="14.00" fill="#000000">AppComponent</text>
</g>
<!-- AppModule -->
<g id="node2" class="node">
<title>AppModule</title>
<polygon fill="#8dd3c7" stroke="#000000" points="199.6571,-187 196.6571,-191 175.6571,-191 172.6571,-187 116.3429,-187 116.3429,-151 199.6571,-151 199.6571,-187"/>
<text text-anchor="middle" x="158" y="-164.8" font-family="Times,serif" font-size="14.00" fill="#000000">AppModule</text>
</g>
<!-- AppComponent&#45;&gt;AppModule -->
<g id="edge1" class="edge">
<title>AppComponent&#45;&gt;AppModule</title>
<path fill="none" stroke="#000000" d="M188.0544,-122.1061C188.0544,-122.1061 188.0544,-140.991 188.0544,-140.991"/>
<polygon fill="#000000" stroke="#000000" points="184.5544,-140.9909 188.0544,-150.991 191.5544,-140.991 184.5544,-140.9909"/>
</g>
<!-- AppComponent  -->
<g id="node4" class="node">
<title>AppComponent </title>
<polygon fill="#80b1d3" stroke="#000000" points="212.439,-252 103.561,-252 103.561,-216 212.439,-216 212.439,-252"/>
<text text-anchor="middle" x="158" y="-229.8" font-family="Times,serif" font-size="14.00" fill="#000000">AppComponent </text>
</g>
<!-- AppModule&#45;&gt;AppComponent  -->
<g id="edge3" class="edge">
<title>AppModule&#45;&gt;AppComponent </title>
<path fill="none" stroke="#000000" stroke-dasharray="1,5" d="M158,-187.1061C158,-187.1061 158,-205.991 158,-205.991"/>
<polygon fill="#000000" stroke="#000000" points="154.5001,-205.9909 158,-215.991 161.5001,-205.991 154.5001,-205.9909"/>
</g>
<!-- AppRoutingModule -->
<g id="node3" class="node">
<title>AppRoutingModule</title>
<polygon fill="#8dd3c7" stroke="#000000" points="152.2744,-122 149.2744,-126 128.2744,-126 125.2744,-122 23.7256,-122 23.7256,-86 152.2744,-86 152.2744,-122"/>
<text text-anchor="middle" x="88" y="-99.8" font-family="Times,serif" font-size="14.00" fill="#000000">AppRoutingModule</text>
</g>
<!-- AppRoutingModule&#45;&gt;AppModule -->
<g id="edge2" class="edge">
<title>AppRoutingModule&#45;&gt;AppModule</title>
<path fill="none" stroke="#000000" d="M134.2795,-122.1061C134.2795,-122.1061 134.2795,-140.991 134.2795,-140.991"/>
<polygon fill="#000000" stroke="#000000" points="130.7795,-140.9909 134.2795,-150.991 137.7795,-140.991 130.7795,-140.9909"/>
</g>
<!-- AvatarSelectorComponent -->
<g id="node5" class="node">
<title>AvatarSelectorComponent</title>
<polygon fill="#ffffb3" stroke="#000000" points="869.7879,-122 704.2121,-122 704.2121,-86 869.7879,-86 869.7879,-122"/>
<text text-anchor="middle" x="787" y="-99.8" font-family="Times,serif" font-size="14.00" fill="#000000">AvatarSelectorComponent</text>
</g>
<!-- ComponentsModule -->
<g id="node9" class="node">
<title>ComponentsModule</title>
<polygon fill="#8dd3c7" stroke="#000000" points="629.3272,-187 626.3272,-191 605.3272,-191 602.3272,-187 498.6728,-187 498.6728,-151 629.3272,-151 629.3272,-187"/>
<text text-anchor="middle" x="564" y="-164.8" font-family="Times,serif" font-size="14.00" fill="#000000">ComponentsModule</text>
</g>
<!-- AvatarSelectorComponent&#45;&gt;ComponentsModule -->
<g id="edge4" class="edge">
<title>AvatarSelectorComponent&#45;&gt;ComponentsModule</title>
<path fill="none" stroke="#000000" d="M716.375,-122.1061C716.375,-141.3391 716.375,-169 716.375,-169 716.375,-169 639.505,-169 639.505,-169"/>
<polygon fill="#000000" stroke="#000000" points="639.5051,-165.5001 629.505,-169 639.505,-172.5001 639.5051,-165.5001"/>
</g>
<!-- MapaComponent -->
<g id="node6" class="node">
<title>MapaComponent</title>
<polygon fill="#ffffb3" stroke="#000000" points="686.7064,-122 573.2936,-122 573.2936,-86 686.7064,-86 686.7064,-122"/>
<text text-anchor="middle" x="630" y="-99.8" font-family="Times,serif" font-size="14.00" fill="#000000">MapaComponent</text>
</g>
<!-- MapaComponent&#45;&gt;ComponentsModule -->
<g id="edge5" class="edge">
<title>MapaComponent&#45;&gt;ComponentsModule</title>
<path fill="none" stroke="#000000" d="M601.2802,-122.1061C601.2802,-122.1061 601.2802,-140.991 601.2802,-140.991"/>
<polygon fill="#000000" stroke="#000000" points="597.7802,-140.9909 601.2802,-150.991 604.7802,-140.991 597.7802,-140.9909"/>
</g>
<!-- PostComponent -->
<g id="node7" class="node">
<title>PostComponent</title>
<polygon fill="#ffffb3" stroke="#000000" points="555.9512,-122 450.0488,-122 450.0488,-86 555.9512,-86 555.9512,-122"/>
<text text-anchor="middle" x="503" y="-99.8" font-family="Times,serif" font-size="14.00" fill="#000000">PostComponent</text>
</g>
<!-- PostComponent&#45;&gt;ComponentsModule -->
<g id="edge6" class="edge">
<title>PostComponent&#45;&gt;ComponentsModule</title>
<path fill="none" stroke="#000000" d="M527.2809,-122.1061C527.2809,-122.1061 527.2809,-140.991 527.2809,-140.991"/>
<polygon fill="#000000" stroke="#000000" points="523.7809,-140.9909 527.2809,-150.991 530.7809,-140.991 523.7809,-140.9909"/>
</g>
<!-- PostsComponent -->
<g id="node8" class="node">
<title>PostsComponent</title>
<polygon fill="#ffffb3" stroke="#000000" points="432.3948,-122 321.6052,-122 321.6052,-86 432.3948,-86 432.3948,-122"/>
<text text-anchor="middle" x="377" y="-99.8" font-family="Times,serif" font-size="14.00" fill="#000000">PostsComponent</text>
</g>
<!-- PostsComponent&#45;&gt;ComponentsModule -->
<g id="edge7" class="edge">
<title>PostsComponent&#45;&gt;ComponentsModule</title>
<path fill="none" stroke="#000000" d="M374.1776,-122.1061C374.1776,-141.3391 374.1776,-169 374.1776,-169 374.1776,-169 488.6739,-169 488.6739,-169"/>
<polygon fill="#000000" stroke="#000000" points="488.6739,-172.5001 498.6739,-169 488.6739,-165.5001 488.6739,-172.5001"/>
</g>
<!-- AvatarSelectorComponent  -->
<g id="node10" class="node">
<title>AvatarSelectorComponent </title>
<polygon fill="#fb8072" stroke="#000000" points="728.2877,-252 559.7123,-252 559.7123,-216 728.2877,-216 728.2877,-252"/>
<text text-anchor="middle" x="644" y="-229.8" font-family="Times,serif" font-size="14.00" fill="#000000">AvatarSelectorComponent </text>
</g>
<!-- ComponentsModule&#45;&gt;AvatarSelectorComponent  -->
<g id="edge8" class="edge">
<title>ComponentsModule&#45;&gt;AvatarSelectorComponent </title>
<path fill="none" stroke="#000000" stroke-dasharray="5,2" d="M594.3848,-187.1061C594.3848,-187.1061 594.3848,-205.991 594.3848,-205.991"/>
<polygon fill="#000000" stroke="#000000" points="590.8849,-205.9909 594.3848,-215.991 597.8849,-205.991 590.8849,-205.9909"/>
</g>
<!-- PostsComponent  -->
<g id="node11" class="node">
<title>PostsComponent </title>
<polygon fill="#fb8072" stroke="#000000" points="541.3955,-252 426.6045,-252 426.6045,-216 541.3955,-216 541.3955,-252"/>
<text text-anchor="middle" x="484" y="-229.8" font-family="Times,serif" font-size="14.00" fill="#000000">PostsComponent </text>
</g>
<!-- ComponentsModule&#45;&gt;PostsComponent  -->
<g id="edge9" class="edge">
<title>ComponentsModule&#45;&gt;PostsComponent </title>
<path fill="none" stroke="#000000" stroke-dasharray="5,2" d="M520.017,-187.1061C520.017,-187.1061 520.017,-205.991 520.017,-205.991"/>
<polygon fill="#000000" stroke="#000000" points="516.5171,-205.9909 520.017,-215.991 523.5171,-205.991 516.5171,-205.9909"/>
</g>
<!-- LoginPage -->
<g id="node12" class="node">
<title>LoginPage</title>
<polygon fill="#ffffb3" stroke="#000000" points="1000.1558,-122 923.8442,-122 923.8442,-86 1000.1558,-86 1000.1558,-122"/>
<text text-anchor="middle" x="962" y="-99.8" font-family="Times,serif" font-size="14.00" fill="#000000">LoginPage</text>
</g>
<!-- LoginPageModule -->
<g id="node13" class="node">
<title>LoginPageModule</title>
<polygon fill="#8dd3c7" stroke="#000000" points="1022.205,-187 1019.205,-191 998.205,-191 995.205,-187 901.795,-187 901.795,-151 1022.205,-151 1022.205,-187"/>
<text text-anchor="middle" x="962" y="-164.8" font-family="Times,serif" font-size="14.00" fill="#000000">LoginPageModule</text>
</g>
<!-- LoginPage&#45;&gt;LoginPageModule -->
<g id="edge10" class="edge">
<title>LoginPage&#45;&gt;LoginPageModule</title>
<path fill="none" stroke="#000000" d="M962,-122.1061C962,-122.1061 962,-140.991 962,-140.991"/>
<polygon fill="#000000" stroke="#000000" points="958.5001,-140.9909 962,-150.991 965.5001,-140.991 958.5001,-140.9909"/>
</g>
<!-- MasinfoPage -->
<g id="node14" class="node">
<title>MasinfoPage</title>
<polygon fill="#ffffb3" stroke="#000000" points="1157.8669,-122 1068.1331,-122 1068.1331,-86 1157.8669,-86 1157.8669,-122"/>
<text text-anchor="middle" x="1113" y="-99.8" font-family="Times,serif" font-size="14.00" fill="#000000">MasinfoPage</text>
</g>
<!-- MasinfoPageModule -->
<g id="node15" class="node">
<title>MasinfoPageModule</title>
<polygon fill="#8dd3c7" stroke="#000000" points="1179.9173,-187 1176.9173,-191 1155.9173,-191 1152.9173,-187 1046.0827,-187 1046.0827,-151 1179.9173,-151 1179.9173,-187"/>
<text text-anchor="middle" x="1113" y="-164.8" font-family="Times,serif" font-size="14.00" fill="#000000">MasinfoPageModule</text>
</g>
<!-- MasinfoPage&#45;&gt;MasinfoPageModule -->
<g id="edge11" class="edge">
<title>MasinfoPage&#45;&gt;MasinfoPageModule</title>
<path fill="none" stroke="#000000" d="M1113,-122.1061C1113,-122.1061 1113,-140.991 1113,-140.991"/>
<polygon fill="#000000" stroke="#000000" points="1109.5001,-140.9909 1113,-150.991 1116.5001,-140.991 1109.5001,-140.9909"/>
</g>
<!-- DomSanitizerPipe -->
<g id="node16" class="node">
<title>DomSanitizerPipe</title>
<polygon fill="#ffffb3" stroke="#000000" points="1673.1443,-122 1554.8557,-122 1554.8557,-86 1673.1443,-86 1673.1443,-122"/>
<text text-anchor="middle" x="1614" y="-99.8" font-family="Times,serif" font-size="14.00" fill="#000000">DomSanitizerPipe</text>
</g>
<!-- PipesModule -->
<g id="node20" class="node">
<title>PipesModule</title>
<polygon fill="#8dd3c7" stroke="#000000" points="1431.8823,-187 1428.8823,-191 1407.8823,-191 1404.8823,-187 1342.1177,-187 1342.1177,-151 1431.8823,-151 1431.8823,-187"/>
<text text-anchor="middle" x="1387" y="-164.8" font-family="Times,serif" font-size="14.00" fill="#000000">PipesModule</text>
</g>
<!-- DomSanitizerPipe&#45;&gt;PipesModule -->
<g id="edge12" class="edge">
<title>DomSanitizerPipe&#45;&gt;PipesModule</title>
<path fill="none" stroke="#000000" d="M1634.524,-122.2667C1634.524,-140.5552 1634.524,-166 1634.524,-166 1634.524,-166 1442.1119,-166 1442.1119,-166"/>
<polygon fill="#000000" stroke="#000000" points="1442.1119,-162.5001 1432.1119,-166 1442.1119,-169.5001 1442.1119,-162.5001"/>
</g>
<!-- FiltroPipe -->
<g id="node17" class="node">
<title>FiltroPipe</title>
<polygon fill="#ffffb3" stroke="#000000" points="1537.0028,-122 1464.9972,-122 1464.9972,-86 1537.0028,-86 1537.0028,-122"/>
<text text-anchor="middle" x="1501" y="-99.8" font-family="Times,serif" font-size="14.00" fill="#000000">FiltroPipe</text>
</g>
<!-- FiltroPipe&#45;&gt;PipesModule -->
<g id="edge13" class="edge">
<title>FiltroPipe&#45;&gt;PipesModule</title>
<path fill="none" stroke="#000000" d="M1513.0005,-122.0091C1513.0005,-138.0494 1513.0005,-159 1513.0005,-159 1513.0005,-159 1442.1332,-159 1442.1332,-159"/>
<polygon fill="#000000" stroke="#000000" points="1442.1332,-155.5001 1432.1332,-159 1442.1331,-162.5001 1442.1332,-155.5001"/>
</g>
<!-- ImageSanitizerPipe -->
<g id="node18" class="node">
<title>ImageSanitizerPipe</title>
<polygon fill="#ffffb3" stroke="#000000" points="1446.6276,-122 1321.3724,-122 1321.3724,-86 1446.6276,-86 1446.6276,-122"/>
<text text-anchor="middle" x="1384" y="-99.8" font-family="Times,serif" font-size="14.00" fill="#000000">ImageSanitizerPipe</text>
</g>
<!-- ImageSanitizerPipe&#45;&gt;PipesModule -->
<g id="edge14" class="edge">
<title>ImageSanitizerPipe&#45;&gt;PipesModule</title>
<path fill="none" stroke="#000000" d="M1387,-122.1061C1387,-122.1061 1387,-140.991 1387,-140.991"/>
<polygon fill="#000000" stroke="#000000" points="1383.5001,-140.9909 1387,-150.991 1390.5001,-140.991 1383.5001,-140.9909"/>
</g>
<!-- ImagenPipe -->
<g id="node19" class="node">
<title>ImagenPipe</title>
<polygon fill="#ffffb3" stroke="#000000" points="1303.3683,-122 1220.6317,-122 1220.6317,-86 1303.3683,-86 1303.3683,-122"/>
<text text-anchor="middle" x="1262" y="-99.8" font-family="Times,serif" font-size="14.00" fill="#000000">ImagenPipe</text>
</g>
<!-- ImagenPipe&#45;&gt;PipesModule -->
<g id="edge15" class="edge">
<title>ImagenPipe&#45;&gt;PipesModule</title>
<path fill="none" stroke="#000000" d="M1272.3114,-122.0225C1272.3114,-139.3734 1272.3114,-163 1272.3114,-163 1272.3114,-163 1332.0012,-163 1332.0012,-163"/>
<polygon fill="#000000" stroke="#000000" points="1332.0012,-166.5001 1342.0012,-163 1332.0012,-159.5001 1332.0012,-166.5001"/>
</g>
<!-- DomSanitizerPipe  -->
<g id="node21" class="node">
<title>DomSanitizerPipe </title>
<polygon fill="#fb8072" stroke="#000000" points="1679.1439,-252 1556.8561,-252 1556.8561,-216 1679.1439,-216 1679.1439,-252"/>
<text text-anchor="middle" x="1618" y="-229.8" font-family="Times,serif" font-size="14.00" fill="#000000">DomSanitizerPipe </text>
</g>
<!-- PipesModule&#45;&gt;DomSanitizerPipe  -->
<g id="edge16" class="edge">
<title>PipesModule&#45;&gt;DomSanitizerPipe </title>
<path fill="none" stroke="#000000" stroke-dasharray="5,2" d="M1432.0335,-173C1493.3932,-173 1595.726,-173 1595.726,-173 1595.726,-173 1595.726,-205.698 1595.726,-205.698"/>
<polygon fill="#000000" stroke="#000000" points="1592.2261,-205.698 1595.726,-215.698 1599.2261,-205.698 1592.2261,-205.698"/>
</g>
<!-- FiltroPipe  -->
<g id="node22" class="node">
<title>FiltroPipe </title>
<polygon fill="#fb8072" stroke="#000000" points="1538.5044,-252 1463.4956,-252 1463.4956,-216 1538.5044,-216 1538.5044,-252"/>
<text text-anchor="middle" x="1501" y="-229.8" font-family="Times,serif" font-size="14.00" fill="#000000">FiltroPipe </text>
</g>
<!-- PipesModule&#45;&gt;FiltroPipe  -->
<g id="edge17" class="edge">
<title>PipesModule&#45;&gt;FiltroPipe </title>
<path fill="none" stroke="#000000" stroke-dasharray="5,2" d="M1432.0354,-180C1459.3597,-180 1488.9995,-180 1488.9995,-180 1488.9995,-180 1488.9995,-205.7181 1488.9995,-205.7181"/>
<polygon fill="#000000" stroke="#000000" points="1485.4996,-205.718 1488.9995,-215.7181 1492.4996,-205.7181 1485.4996,-205.718"/>
</g>
<!-- ImageSanitizerPipe  -->
<g id="node23" class="node">
<title>ImageSanitizerPipe </title>
<polygon fill="#fb8072" stroke="#000000" points="1445.6271,-252 1316.3729,-252 1316.3729,-216 1445.6271,-216 1445.6271,-252"/>
<text text-anchor="middle" x="1381" y="-229.8" font-family="Times,serif" font-size="14.00" fill="#000000">ImageSanitizerPipe </text>
</g>
<!-- PipesModule&#45;&gt;ImageSanitizerPipe  -->
<g id="edge18" class="edge">
<title>PipesModule&#45;&gt;ImageSanitizerPipe </title>
<path fill="none" stroke="#000000" stroke-dasharray="5,2" d="M1387,-187.1061C1387,-187.1061 1387,-205.991 1387,-205.991"/>
<polygon fill="#000000" stroke="#000000" points="1383.5001,-205.9909 1387,-215.991 1390.5001,-205.991 1383.5001,-205.9909"/>
</g>
<!-- ImagenPipe  -->
<g id="node24" class="node">
<title>ImagenPipe </title>
<polygon fill="#fb8072" stroke="#000000" points="1298.369,-252 1211.631,-252 1211.631,-216 1298.369,-216 1298.369,-252"/>
<text text-anchor="middle" x="1255" y="-229.8" font-family="Times,serif" font-size="14.00" fill="#000000">ImagenPipe </text>
</g>
<!-- PipesModule&#45;&gt;ImagenPipe  -->
<g id="edge19" class="edge">
<title>PipesModule&#45;&gt;ImagenPipe </title>
<path fill="none" stroke="#000000" stroke-dasharray="5,2" d="M1341.7518,-175C1300.6612,-175 1246.4386,-175 1246.4386,-175 1246.4386,-175 1246.4386,-205.9775 1246.4386,-205.9775"/>
<polygon fill="#000000" stroke="#000000" points="1242.9387,-205.9774 1246.4386,-215.9775 1249.9387,-205.9775 1242.9387,-205.9774"/>
</g>
<!-- Tab1Page -->
<g id="node25" class="node">
<title>Tab1Page</title>
<polygon fill="#ffffb3" stroke="#000000" points="1804.979,-122 1733.021,-122 1733.021,-86 1804.979,-86 1804.979,-122"/>
<text text-anchor="middle" x="1769" y="-99.8" font-family="Times,serif" font-size="14.00" fill="#000000">Tab1Page</text>
</g>
<!-- Tab1PageModule -->
<g id="node26" class="node">
<title>Tab1PageModule</title>
<polygon fill="#8dd3c7" stroke="#000000" points="1826.5298,-187 1823.5298,-191 1802.5298,-191 1799.5298,-187 1711.4702,-187 1711.4702,-151 1826.5298,-151 1826.5298,-187"/>
<text text-anchor="middle" x="1769" y="-164.8" font-family="Times,serif" font-size="14.00" fill="#000000">Tab1PageModule</text>
</g>
<!-- Tab1Page&#45;&gt;Tab1PageModule -->
<g id="edge20" class="edge">
<title>Tab1Page&#45;&gt;Tab1PageModule</title>
<path fill="none" stroke="#000000" d="M1769,-122.1061C1769,-122.1061 1769,-140.991 1769,-140.991"/>
<polygon fill="#000000" stroke="#000000" points="1765.5001,-140.9909 1769,-150.991 1772.5001,-140.991 1765.5001,-140.9909"/>
</g>
<!-- Tab2Page -->
<g id="node27" class="node">
<title>Tab2Page</title>
<polygon fill="#ffffb3" stroke="#000000" points="1944.979,-122 1873.021,-122 1873.021,-86 1944.979,-86 1944.979,-122"/>
<text text-anchor="middle" x="1909" y="-99.8" font-family="Times,serif" font-size="14.00" fill="#000000">Tab2Page</text>
</g>
<!-- Tab2PageModule -->
<g id="node28" class="node">
<title>Tab2PageModule</title>
<polygon fill="#8dd3c7" stroke="#000000" points="1966.5298,-187 1963.5298,-191 1942.5298,-191 1939.5298,-187 1851.4702,-187 1851.4702,-151 1966.5298,-151 1966.5298,-187"/>
<text text-anchor="middle" x="1909" y="-164.8" font-family="Times,serif" font-size="14.00" fill="#000000">Tab2PageModule</text>
</g>
<!-- Tab2Page&#45;&gt;Tab2PageModule -->
<g id="edge21" class="edge">
<title>Tab2Page&#45;&gt;Tab2PageModule</title>
<path fill="none" stroke="#000000" d="M1909,-122.1061C1909,-122.1061 1909,-140.991 1909,-140.991"/>
<polygon fill="#000000" stroke="#000000" points="1905.5001,-140.9909 1909,-150.991 1912.5001,-140.991 1905.5001,-140.9909"/>
</g>
<!-- Tab3Page -->
<g id="node29" class="node">
<title>Tab3Page</title>
<polygon fill="#ffffb3" stroke="#000000" points="2084.979,-122 2013.021,-122 2013.021,-86 2084.979,-86 2084.979,-122"/>
<text text-anchor="middle" x="2049" y="-99.8" font-family="Times,serif" font-size="14.00" fill="#000000">Tab3Page</text>
</g>
<!-- Tab3PageModule -->
<g id="node30" class="node">
<title>Tab3PageModule</title>
<polygon fill="#8dd3c7" stroke="#000000" points="2106.5298,-187 2103.5298,-191 2082.5298,-191 2079.5298,-187 1991.4702,-187 1991.4702,-151 2106.5298,-151 2106.5298,-187"/>
<text text-anchor="middle" x="2049" y="-164.8" font-family="Times,serif" font-size="14.00" fill="#000000">Tab3PageModule</text>
</g>
<!-- Tab3Page&#45;&gt;Tab3PageModule -->
<g id="edge22" class="edge">
<title>Tab3Page&#45;&gt;Tab3PageModule</title>
<path fill="none" stroke="#000000" d="M2049,-122.1061C2049,-122.1061 2049,-140.991 2049,-140.991"/>
<polygon fill="#000000" stroke="#000000" points="2045.5001,-140.9909 2049,-150.991 2052.5001,-140.991 2045.5001,-140.9909"/>
</g>
<!-- Tab4Page -->
<g id="node31" class="node">
<title>Tab4Page</title>
<polygon fill="#ffffb3" stroke="#000000" points="2224.979,-122 2153.021,-122 2153.021,-86 2224.979,-86 2224.979,-122"/>
<text text-anchor="middle" x="2189" y="-99.8" font-family="Times,serif" font-size="14.00" fill="#000000">Tab4Page</text>
</g>
<!-- Tab4PageModule -->
<g id="node32" class="node">
<title>Tab4PageModule</title>
<polygon fill="#8dd3c7" stroke="#000000" points="2246.5298,-187 2243.5298,-191 2222.5298,-191 2219.5298,-187 2131.4702,-187 2131.4702,-151 2246.5298,-151 2246.5298,-187"/>
<text text-anchor="middle" x="2189" y="-164.8" font-family="Times,serif" font-size="14.00" fill="#000000">Tab4PageModule</text>
</g>
<!-- Tab4Page&#45;&gt;Tab4PageModule -->
<g id="edge23" class="edge">
<title>Tab4Page&#45;&gt;Tab4PageModule</title>
<path fill="none" stroke="#000000" d="M2189,-122.1061C2189,-122.1061 2189,-140.991 2189,-140.991"/>
<polygon fill="#000000" stroke="#000000" points="2185.5001,-140.9909 2189,-150.991 2192.5001,-140.991 2185.5001,-140.9909"/>
</g>
<!-- Tab5Page -->
<g id="node33" class="node">
<title>Tab5Page</title>
<polygon fill="#ffffb3" stroke="#000000" points="2364.979,-122 2293.021,-122 2293.021,-86 2364.979,-86 2364.979,-122"/>
<text text-anchor="middle" x="2329" y="-99.8" font-family="Times,serif" font-size="14.00" fill="#000000">Tab5Page</text>
</g>
<!-- Tab5PageModule -->
<g id="node34" class="node">
<title>Tab5PageModule</title>
<polygon fill="#8dd3c7" stroke="#000000" points="2386.5298,-187 2383.5298,-191 2362.5298,-191 2359.5298,-187 2271.4702,-187 2271.4702,-151 2386.5298,-151 2386.5298,-187"/>
<text text-anchor="middle" x="2329" y="-164.8" font-family="Times,serif" font-size="14.00" fill="#000000">Tab5PageModule</text>
</g>
<!-- Tab5Page&#45;&gt;Tab5PageModule -->
<g id="edge24" class="edge">
<title>Tab5Page&#45;&gt;Tab5PageModule</title>
<path fill="none" stroke="#000000" d="M2329,-122.1061C2329,-122.1061 2329,-140.991 2329,-140.991"/>
<polygon fill="#000000" stroke="#000000" points="2325.5001,-140.9909 2329,-150.991 2332.5001,-140.991 2325.5001,-140.9909"/>
</g>
<!-- Tab6Page -->
<g id="node35" class="node">
<title>Tab6Page</title>
<polygon fill="#ffffb3" stroke="#000000" points="2504.979,-122 2433.021,-122 2433.021,-86 2504.979,-86 2504.979,-122"/>
<text text-anchor="middle" x="2469" y="-99.8" font-family="Times,serif" font-size="14.00" fill="#000000">Tab6Page</text>
</g>
<!-- Tab6PageModule -->
<g id="node36" class="node">
<title>Tab6PageModule</title>
<polygon fill="#8dd3c7" stroke="#000000" points="2526.5298,-187 2523.5298,-191 2502.5298,-191 2499.5298,-187 2411.4702,-187 2411.4702,-151 2526.5298,-151 2526.5298,-187"/>
<text text-anchor="middle" x="2469" y="-164.8" font-family="Times,serif" font-size="14.00" fill="#000000">Tab6PageModule</text>
</g>
<!-- Tab6Page&#45;&gt;Tab6PageModule -->
<g id="edge25" class="edge">
<title>Tab6Page&#45;&gt;Tab6PageModule</title>
<path fill="none" stroke="#000000" d="M2469,-122.1061C2469,-122.1061 2469,-140.991 2469,-140.991"/>
<polygon fill="#000000" stroke="#000000" points="2465.5001,-140.9909 2469,-150.991 2472.5001,-140.991 2465.5001,-140.9909"/>
</g>
<!-- TabsPage -->
<g id="node37" class="node">
<title>TabsPage</title>
<polygon fill="#ffffb3" stroke="#000000" points="2813.4249,-122 2742.5751,-122 2742.5751,-86 2813.4249,-86 2813.4249,-122"/>
<text text-anchor="middle" x="2778" y="-99.8" font-family="Times,serif" font-size="14.00" fill="#000000">TabsPage</text>
</g>
<!-- TabsPageModule -->
<g id="node38" class="node">
<title>TabsPageModule</title>
<polygon fill="#8dd3c7" stroke="#000000" points="2757.9734,-187 2754.9734,-191 2733.9734,-191 2730.9734,-187 2644.0266,-187 2644.0266,-151 2757.9734,-151 2757.9734,-187"/>
<text text-anchor="middle" x="2701" y="-164.8" font-family="Times,serif" font-size="14.00" fill="#000000">TabsPageModule</text>
</g>
<!-- TabsPage&#45;&gt;TabsPageModule -->
<g id="edge26" class="edge">
<title>TabsPage&#45;&gt;TabsPageModule</title>
<path fill="none" stroke="#000000" d="M2750.3875,-122.1061C2750.3875,-122.1061 2750.3875,-140.991 2750.3875,-140.991"/>
<polygon fill="#000000" stroke="#000000" points="2746.8875,-140.9909 2750.3875,-150.991 2753.8875,-140.991 2746.8875,-140.9909"/>
</g>
<!-- TabsPageRoutingModule -->
<g id="node39" class="node">
<title>TabsPageRoutingModule</title>
<polygon fill="#8dd3c7" stroke="#000000" points="2718.5912,-122 2715.5912,-126 2694.5912,-126 2691.5912,-122 2559.4088,-122 2559.4088,-86 2718.5912,-86 2718.5912,-122"/>
<text text-anchor="middle" x="2639" y="-99.8" font-family="Times,serif" font-size="14.00" fill="#000000">TabsPageRoutingModule</text>
</g>
<!-- TabsPageRoutingModule&#45;&gt;TabsPageModule -->
<g id="edge27" class="edge">
<title>TabsPageRoutingModule&#45;&gt;TabsPageModule</title>
<path fill="none" stroke="#000000" d="M2681.2795,-122.1061C2681.2795,-122.1061 2681.2795,-140.991 2681.2795,-140.991"/>
<polygon fill="#000000" stroke="#000000" points="2677.7795,-140.9909 2681.2795,-150.991 2684.7795,-140.991 2677.7795,-140.9909"/>
</g>
</g>
</svg>
